<svg width="165" height="29" viewBox="0 0 165 29" fill="none" xmlns="http://www.w3.org/2000/svg">
<g clip-path="url(#clip0_2_1374)">
<path d="M96.9024 10.6028V11.9766H93.1332C92.5737 9.25696 90.6007 7.41425 87.7739 7.41425C84.1233 7.41425 81.5315 10.4562 81.5315 14.5497C81.5315 18.6432 84.1233 21.6851 87.7739 21.6851C90.6299 21.6851 92.633 19.7845 93.1915 17.0639H96.9898V18.4387C95.8416 22.4164 92.4552 25.165 87.8031 25.165C81.8249 25.165 77.6439 20.6615 77.6439 14.5497C77.6439 8.43787 81.8249 3.93433 87.7729 3.93433C92.3959 3.93433 95.7532 6.56622 96.9014 10.6018L96.9024 10.6028Z" fill="#A1A3A7"/>
<path d="M118.957 14.5506C118.957 20.6625 114.776 25.166 108.739 25.166C102.703 25.166 98.5217 20.6625 98.5217 14.5506C98.5217 8.43883 102.703 3.93529 108.739 3.93529C114.776 3.93529 118.957 8.43883 118.957 14.5506ZM102.438 14.5506C102.438 18.6451 105.058 21.6861 108.739 21.6861C112.42 21.6861 115.041 18.6442 115.041 14.5506C115.041 10.4571 112.42 7.41521 108.739 7.41521C105.058 7.41521 102.438 10.4571 102.438 14.5506Z" fill="#A1A3A7"/>
<path d="M121.694 4.46109H131.028C135.24 4.46109 137.624 6.91739 137.624 10.105C137.624 12.4156 136.417 14.1406 134.209 14.9009V15.4276C136.447 15.9544 137.124 17.5048 137.124 19.7266V24.6392H133.355V19.6388C133.355 17.6504 132.442 16.8314 130.646 16.8314H125.434V24.6392H121.694V4.46109ZM125.434 7.88216V13.5261H130.411C132.619 13.5261 133.738 12.3558 133.738 10.7186C133.738 9.08137 132.619 7.88216 130.411 7.88216H125.434Z" fill="#A1A3A7"/>
<path d="M140.657 4.46109H154.556V7.85322H144.397V12.6201H153.29V15.9833H144.397V21.2182H154.762V24.6392H140.657V4.46109Z" fill="#A1A3A7"/>
<path d="M68.3415 4.36558V24.6344C68.3415 25.1197 68.7379 25.5133 69.2265 25.5133H70.5894C71.2869 25.5133 71.8532 26.0748 71.8532 26.7685V28.1211C71.8532 28.6064 72.2496 29 72.7382 29H75.395C75.8837 29 76.28 28.6064 76.28 28.1211V26.2369C76.28 25.7516 75.8837 25.358 75.395 25.358H73.2725C72.575 25.358 72.0087 24.7965 72.0087 24.1028V4.8962C72.0087 4.2035 72.574 3.64104 73.2725 3.64104H75.3941C75.8827 3.64104 76.279 3.24741 76.279 2.76213V0.878905C76.279 0.393626 75.8827 0 75.3941 0H72.7372C72.2486 0 71.8523 0.393626 71.8523 0.878905V2.23151C71.8523 2.92422 71.2869 3.48668 70.5884 3.48668H69.2255C68.7369 3.48668 68.3406 3.8803 68.3406 4.36558H68.3415Z" fill="#A1A3A7"/>
<path d="M165 24.6344V4.36558C165 3.8803 164.604 3.48668 164.115 3.48668H162.752C162.055 3.48668 161.488 2.92518 161.488 2.23151V0.878905C161.488 0.393626 161.092 0 160.603 0H157.946C157.458 0 157.062 0.393626 157.062 0.878905V2.76213C157.062 3.24741 157.458 3.64104 157.946 3.64104H160.069C160.767 3.64104 161.333 4.20254 161.333 4.8962V24.1038C161.333 24.7965 160.768 25.359 160.069 25.359H157.947C157.459 25.359 157.062 25.7526 157.062 26.2379V28.1221C157.062 28.6073 157.459 29.001 157.947 29.001H160.604C161.093 29.001 161.489 28.6073 161.489 28.1221V26.7695C161.489 26.0767 162.055 25.5143 162.753 25.5143H164.116C164.605 25.5143 165.001 25.1207 165.001 24.6354L165 24.6344Z" fill="#A1A3A7"/>
<path d="M13.4125 13.7306C12.4372 13.3418 11.2462 13.0176 9.8396 12.7571H9.80948C8.44269 12.5179 7.41687 12.2979 6.73396 12.0982C6.05008 11.8995 5.51288 11.6293 5.1214 11.2897C4.72992 10.9501 4.53369 10.4813 4.53369 9.88214C4.53369 9.0042 4.86494 8.33561 5.52842 7.87638C6.19191 7.41715 7.06619 7.18754 8.15127 7.18754C9.33737 7.18754 10.2962 7.48662 11.0306 8.08574C11.6892 8.62408 12.0923 9.30714 12.241 10.1349C12.2701 10.2999 12.411 10.4224 12.58 10.4234L15.9158 10.4485C16.1208 10.4504 16.284 10.2758 16.2636 10.0732C16.1519 8.96561 15.7837 7.95935 15.1611 7.05247C14.4675 6.04429 13.5125 5.26089 12.2973 4.70229C11.0811 4.14369 9.69971 3.86391 8.15224 3.86391C6.68539 3.86391 5.36328 4.13308 4.18786 4.67238C3.01244 5.21169 2.09736 5.95939 1.44456 6.91837C0.790797 7.87638 0.464399 8.955 0.464399 10.1523C0.464399 11.4701 0.755826 12.5275 1.33868 13.3264C1.92153 14.1252 2.68507 14.7291 3.63026 15.1382C4.57449 15.5473 5.71008 15.8714 7.03704 16.1117L7.18761 16.1416C8.59423 16.4011 9.64434 16.6307 10.3379 16.8304C11.0315 17.0301 11.5784 17.3099 11.9806 17.6688C12.3828 18.0287 12.5839 18.5178 12.5839 19.1362C12.5839 20.0151 12.2225 20.703 11.4988 21.2018C10.7751 21.7006 9.84057 21.9504 8.69526 21.9504C7.32847 21.9504 6.22299 21.606 5.37883 20.9172C4.61043 20.2901 4.15872 19.4864 4.02272 18.5043C3.99941 18.3345 3.85758 18.2052 3.68466 18.2033L0.352685 18.1531C0.149658 18.1502 -0.0135408 18.32 0.00200194 18.5207C0.0962299 19.7286 0.477028 20.8168 1.14245 21.7855C1.87588 22.8535 2.88616 23.6918 4.17232 24.3006C5.45848 24.9094 6.93602 25.2143 8.60395 25.2143C10.1514 25.2143 11.5386 24.9345 12.7646 24.3759C13.9905 23.8173 14.9503 23.0435 15.6438 22.0556C16.3374 21.0677 16.6842 19.9553 16.6842 18.7175C16.6842 17.3996 16.3821 16.3374 15.7798 15.5289C15.1766 14.7205 14.3878 14.1213 13.4135 13.7325L13.4125 13.7306Z" fill="#A1A3A7"/>
<path d="M33.8998 21.7999H33.3792C33.078 21.7999 32.841 21.7208 32.671 21.5607C32.5 21.4015 32.4145 21.142 32.4145 20.7821V15.0629C32.4145 13.2463 31.8317 11.8638 30.666 10.9164C29.5003 9.96896 28.1276 9.48561 25.9769 9.48561C23.9466 9.48561 22.3603 9.92362 21.1149 10.7823C19.9794 11.5647 19.2945 12.6365 19.0604 13.9988C19.0244 14.2101 19.1847 14.405 19.4014 14.405H22.4652C22.6187 14.405 22.7566 14.3046 22.7974 14.158C22.9373 13.6534 23.2462 13.2424 23.7232 12.9231C24.276 12.5536 24.9326 12.3693 25.7972 12.3693C27.4272 12.3693 28.5871 13.3678 28.5871 14.8546V15.3196C28.5871 15.5096 28.4317 15.663 28.2413 15.663H25.4659C23.2152 15.663 21.5064 16.102 20.3407 16.9799C19.175 17.8588 18.5922 19.1063 18.5922 20.7223C18.5922 22.1202 19.1245 23.2181 20.1902 24.016C20.9896 24.6151 21.9445 24.9605 22.9286 25.112C23.6805 25.2278 24.4518 25.2702 25.2056 25.1496C25.9944 25.0242 26.6355 24.701 27.2767 24.2408C27.8527 23.8279 28.3336 23.2982 28.7727 22.6518C28.9864 22.2871 29.5479 22.4328 29.5479 22.8554V23.3629C29.5479 24.2852 30.2997 25.0338 31.2294 25.0338H33.9018C34.0931 25.0338 34.2476 24.8795 34.2476 24.6904V22.1443C34.2476 21.9543 34.0922 21.8009 33.9018 21.8009L33.8998 21.7999ZM28.5852 18.7156C28.5852 19.4546 28.4288 20.0981 28.1179 20.647C27.4651 21.798 26.2975 22.3981 24.9822 22.3981C24.2177 22.3981 23.6047 22.2186 23.1433 21.8597C22.6809 21.4999 22.4497 21.0214 22.4497 20.4222C22.4497 19.744 22.7061 19.2201 23.2181 18.8506C23.731 18.4821 24.4586 18.2968 25.4038 18.2968H28.2394C28.4307 18.2968 28.5852 18.4512 28.5852 18.6403V18.7156Z" fill="#A1A3A7"/>
<path d="M45.0692 4.08388H41.0824C38.9793 4.08388 37.2735 5.77705 37.2735 7.86674V9.52807C37.2735 9.71813 37.1181 9.87153 36.9277 9.87153H34.6516C34.4602 9.87153 34.3058 10.0259 34.3058 10.215V12.7909C34.3058 12.981 34.4612 13.1344 34.6516 13.1344H36.9277C37.119 13.1344 37.2735 13.2887 37.2735 13.4778V24.6894C37.2735 24.8795 37.4289 25.0329 37.6193 25.0329H40.7259C40.9173 25.0329 41.0717 24.8785 41.0717 24.6894V13.4778C41.0717 13.2878 41.2272 13.1344 41.4176 13.1344H45.0371C45.2285 13.1344 45.3829 12.98 45.3829 12.7909V10.215C45.3829 10.0249 45.2275 9.87153 45.0371 9.87153H41.4176C41.2262 9.87153 41.0717 9.71717 41.0717 9.52807V8.03461C41.0717 7.65449 41.3816 7.34673 41.7644 7.34673H45.0682C45.2595 7.34673 45.414 7.19236 45.414 7.00327V4.42734C45.414 4.23728 45.2586 4.08388 45.0682 4.08388H45.0692Z" fill="#A1A3A7"/>
<path d="M60.2885 12.9675C59.6153 11.8503 58.6953 10.9916 57.5296 10.3925C56.3639 9.79337 55.0166 9.48561 53.4905 9.48561C51.9643 9.48561 50.6461 9.81846 49.4804 10.4677C48.3147 11.117 47.4103 12.0345 46.7672 13.2222C46.1242 14.4098 45.8026 15.802 45.8026 17.3986C45.8026 18.9953 46.1348 20.3287 46.7973 21.5153C47.4608 22.7029 48.4099 23.6166 49.6465 24.2553C50.8822 24.8949 52.3345 25.2133 54.0034 25.2133C55.2895 25.2133 56.4407 24.9788 57.4558 24.51C58.47 24.0411 59.2898 23.3976 59.9125 22.5785C60.4458 21.8781 60.8101 21.1111 61.0044 20.2775C61.0549 20.0614 60.8907 19.854 60.6673 19.854H57.5461C57.3965 19.854 57.2654 19.9505 57.2178 20.0904C56.9983 20.7358 56.6097 21.2452 56.0531 21.6205C55.4294 22.0392 54.6562 22.2495 53.7314 22.2495C52.9678 22.2495 52.2995 22.0903 51.7263 21.771C51.1532 21.4516 50.7015 21.003 50.3693 20.4232C50.2381 20.1946 50.1313 19.9534 50.0458 19.7044C49.9545 19.4372 49.8884 19.1613 49.8428 18.8825C49.8272 18.785 49.8126 18.6866 49.801 18.5882C49.7777 18.3856 49.9399 18.2081 50.1458 18.2081H60.9082C61.0831 18.2081 61.2327 18.0798 61.2521 17.9071C61.2667 17.7807 61.2774 17.6514 61.2822 17.5192C61.2919 17.28 61.2968 17.06 61.2968 16.8603C61.2968 15.3832 60.9597 14.0856 60.2865 12.9675H60.2885ZM57.0546 15.6022H50.3149C50.0934 15.6022 49.9273 15.3987 49.9758 15.1845C50.0837 14.7147 50.2702 14.2902 50.5354 13.911C50.8773 13.4219 51.3193 13.0475 51.8614 12.788C52.4044 12.5285 52.997 12.3992 53.64 12.3992C54.6853 12.3992 55.5499 12.679 56.2328 13.2376C56.8185 13.7171 57.2061 14.3654 57.3927 15.1835C57.4422 15.3987 57.2761 15.6032 57.0546 15.6032V15.6022Z" fill="#A1A3A7"/>
</g>
<defs>
<clipPath id="clip0_2_1374">
<rect width="165" height="29" fill="white"/>
</clipPath>
</defs>
</svg>
