<svg xmlns="http://www.w3.org/2000/svg" xmlns:xlink="http://www.w3.org/1999/xlink" preserveAspectRatio="xMidYMid meet" width="1131" height="1156" viewBox="0 0 1131 1156" class="styles_bg__oYxMr"><defs><animateTransform repeatCount="indefinite" dur="60s" begin="0s" xlink:href="#_R_G_L_1_G_D_1_P_0_G_0_T_0" fill="freeze" attributeName="transform" from="0" to="-360" type="rotate" additive="sum" keyTimes="0;0.9983361;1" values="0;-360;-360" keySplines="0.167 0.167 0.667 1;0 0 0 0" calcMode="linear"></animateTransform><animateTransform repeatCount="indefinite" dur="60s" begin="0s" xlink:href="#_R_G_L_1_G_D_2_P_0_G_0_T_0" fill="freeze" attributeName="transform" from="0" to="-360" type="rotate" additive="sum" keyTimes="0;0.9983361;1" values="0;-360;-360" keySplines="0.167 0.167 0.667 1;0 0 0 0" calcMode="linear"></animateTransform><animateTransform repeatCount="indefinite" dur="60s" begin="0s" xlink:href="#_R_G_L_1_G_D_3_P_0_G_0_T_0" fill="freeze" attributeName="transform" from="0" to="-360" type="rotate" additive="sum" keyTimes="0;0.9983361;1" values="0;-360;-360" keySplines="0.167 0.167 0.667 1;0 0 0 0" calcMode="linear"></animateTransform><animateTransform repeatCount="indefinite" dur="60s" begin="0s" xlink:href="#_R_G_L_1_G_D_4_P_0_G_0_T_0" fill="freeze" attributeName="transform" from="0" to="-360" type="rotate" additive="sum" keyTimes="0;0.9983361;1" values="0;-360;-360" keySplines="0.167 0.167 0.667 1;0 0 0 0" calcMode="linear"></animateTransform><animateTransform repeatCount="indefinite" dur="60s" begin="0s" xlink:href="#_R_G_L_1_G_D_5_P_0_G_0_T_0" fill="freeze" attributeName="transform" from="0" to="-360" type="rotate" additive="sum" keyTimes="0;0.9983361;1" values="0;-360;-360" keySplines="0.167 0.167 0.667 1;0 0 0 0" calcMode="linear"></animateTransform><animateTransform repeatCount="indefinite" dur="60s" begin="0s" xlink:href="#_R_G_L_1_G_D_6_P_0_G_0_T_0" fill="freeze" attributeName="transform" from="0" to="-360" type="rotate" additive="sum" keyTimes="0;0.9983361;1" values="0;-360;-360" keySplines="0.167 0.167 0.667 1;0 0 0 0" calcMode="linear"></animateTransform><animateTransform repeatCount="indefinite" dur="60s" begin="0s" xlink:href="#_R_G_L_1_G_D_7_P_0_G_0_T_0" fill="freeze" attributeName="transform" from="0" to="-360" type="rotate" additive="sum" keyTimes="0;0.9983361;1" values="0;-360;-360" keySplines="0.167 0.167 0.667 1;0 0 0 0" calcMode="linear"></animateTransform><animateTransform repeatCount="indefinite" dur="60s" begin="0s" xlink:href="#_R_G_L_1_G_N_2_T_0" fill="freeze" attributeName="transform" from="0" to="360" type="rotate" additive="sum" keyTimes="0;0.9983361;1" values="0;360;360" keySplines="0.167 0.167 0.667 1;0 0 0 0" calcMode="linear"></animateTransform><animateTransform repeatCount="indefinite" dur="70s" begin="0s" xlink:href="#_R_G_L_0_G_D_0_P_0_G_0_T_0" fill="freeze" attributeName="transform" from="0" to="-360" type="rotate" additive="sum" keyTimes="0;0.9983361;1" values="0;-360;-360" keySplines="0.167 0.167 0.667 1;0 0 0 0" calcMode="linear"></animateTransform><animateTransform repeatCount="indefinite" dur="70s" begin="0s" xlink:href="#_R_G_L_0_G_D_2_P_0_G_0_T_0" fill="freeze" attributeName="transform" from="0" to="-360" type="rotate" additive="sum" keyTimes="0;0.9983361;1" values="0;-360;-360" keySplines="0.167 0.167 0.667 1;0 0 0 0" calcMode="linear"></animateTransform><animateTransform repeatCount="indefinite" dur="70s" begin="0s" xlink:href="#_R_G_L_0_G_D_3_P_0_G_0_T_0" fill="freeze" attributeName="transform" from="0" to="-360" type="rotate" additive="sum" keyTimes="0;0.9983361;1" values="0;-360;-360" keySplines="0.167 0.167 0.667 1;0 0 0 0" calcMode="linear"></animateTransform><animateTransform repeatCount="indefinite" dur="70s" begin="0s" xlink:href="#_R_G_L_0_G_D_5_P_0_G_0_T_0" fill="freeze" attributeName="transform" from="0" to="-360" type="rotate" additive="sum" keyTimes="0;0.9983361;1" values="0;-360;-360" keySplines="0.167 0.167 0.667 1;0 0 0 0" calcMode="linear"></animateTransform><animateTransform repeatCount="indefinite" dur="70s" begin="0s" xlink:href="#_R_G_L_0_G_D_7_P_0_G_0_T_0" fill="freeze" attributeName="transform" from="0" to="-360" type="rotate" additive="sum" keyTimes="0;0.9983361;1" values="0;-360;-360" keySplines="0.167 0.167 0.667 1;0 0 0 0" calcMode="linear"></animateTransform><animateTransform repeatCount="indefinite" dur="70s" begin="0s" xlink:href="#_R_G_L_0_G_D_8_P_0_G_0_T_0" fill="freeze" attributeName="transform" from="0" to="-360" type="rotate" additive="sum" keyTimes="0;0.9983361;1" values="0;-360;-360" keySplines="0.167 0.167 0.667 1;0 0 0 0" calcMode="linear"></animateTransform><animateTransform repeatCount="indefinite" dur="70s" begin="0s" xlink:href="#_R_G_L_0_G_D_9_P_0_G_0_T_0" fill="freeze" attributeName="transform" from="0" to="-360" type="rotate" additive="sum" keyTimes="0;0.9983361;1" values="0;-360;-360" keySplines="0.167 0.167 0.667 1;0 0 0 0" calcMode="linear"></animateTransform><animateTransform repeatCount="indefinite" dur="70s" begin="0s" xlink:href="#_R_G_L_0_G_D_10_P_0_G_0_T_0" fill="freeze" attributeName="transform" from="0" to="-360" type="rotate" additive="sum" keyTimes="0;0.9983361;1" values="0;-360;-360" keySplines="0.167 0.167 0.667 1;0 0 0 0" calcMode="linear"></animateTransform><animateTransform repeatCount="indefinite" dur="70s" begin="0s" xlink:href="#_R_G_L_0_G_D_11_P_0_G_0_T_0" fill="freeze" attributeName="transform" from="0" to="-360" type="rotate" additive="sum" keyTimes="0;0.9983361;1" values="0;-360;-360" keySplines="0.167 0.167 0.667 1;0 0 0 0" calcMode="linear"></animateTransform><animateTransform repeatCount="indefinite" dur="70s" begin="0s" xlink:href="#_R_G_L_0_G_D_13_P_0_G_0_T_0" fill="freeze" attributeName="transform" from="0" to="-360" type="rotate" additive="sum" keyTimes="0;0.9983361;1" values="0;-360;-360" keySplines="0.167 0.167 0.667 1;0 0 0 0" calcMode="linear"></animateTransform><animateTransform repeatCount="indefinite" dur="70s" begin="0s" xlink:href="#_R_G_L_0_G_D_14_P_0_G_0_T_0" fill="freeze" attributeName="transform" from="0" to="-360" type="rotate" additive="sum" keyTimes="0;0.9983361;1" values="0;-360;-360" keySplines="0.167 0.167 0.667 1;0 0 0 0" calcMode="linear"></animateTransform><animateTransform repeatCount="indefinite" dur="70s" begin="0s" xlink:href="#_R_G_L_0_G_D_15_P_0_G_0_T_0" fill="freeze" attributeName="transform" from="0" to="-360" type="rotate" additive="sum" keyTimes="0;0.9983361;1" values="0;-360;-360" keySplines="0.167 0.167 0.667 1;0 0 0 0" calcMode="linear"></animateTransform><animateTransform repeatCount="indefinite" dur="70s" begin="0s" xlink:href="#_R_G_L_0_G_D_16_P_0_G_0_T_0" fill="freeze" attributeName="transform" from="0" to="-360" type="rotate" additive="sum" keyTimes="0;0.9983361;1" values="0;-360;-360" keySplines="0.167 0.167 0.667 1;0 0 0 0" calcMode="linear"></animateTransform><animateTransform repeatCount="indefinite" dur="70s" begin="0s" xlink:href="#_R_G_L_0_G_D_17_P_0_G_0_T_0" fill="freeze" attributeName="transform" from="0" to="-360" type="rotate" additive="sum" keyTimes="0;0.9983361;1" values="0;-360;-360" keySplines="0.167 0.167 0.667 1;0 0 0 0" calcMode="linear"></animateTransform><animateTransform repeatCount="indefinite" dur="70s" begin="0s" xlink:href="#_R_G_L_0_G_N_1_T_0" fill="freeze" attributeName="transform" from="0" to="360" type="rotate" additive="sum" keyTimes="0;0.9983361;1" values="0;360;360" keySplines="0.167 0.167 0.667 1;0 0 0 0" calcMode="linear"></animateTransform><animateTransform repeatCount="indefinite" dur="80s" begin="0s" xlink:href="#_R_G_L_2_G_D_0_P_0_G_0_T_0" fill="freeze" attributeName="transform" from="0" to="-360" type="rotate" additive="sum" keyTimes="0;0.9983361;1" values="0;-360;-360" keySplines="0.167 0.167 0.667 1;0 0 0 0" calcMode="linear"></animateTransform><animateTransform repeatCount="indefinite" dur="80s" begin="0s" xlink:href="#_R_G_L_2_G_D_1_P_0_G_0_T_0" fill="freeze" attributeName="transform" from="0" to="-360" type="rotate" additive="sum" keyTimes="0;0.9983361;1" values="0;-360;-360" keySplines="0.167 0.167 0.667 1;0 0 0 0" calcMode="linear"></animateTransform><animateTransform repeatCount="indefinite" dur="80s" begin="0s" xlink:href="#_R_G_L_2_G_D_2_P_0_G_0_T_0" fill="freeze" attributeName="transform" from="0" to="-360" type="rotate" additive="sum" keyTimes="0;0.9983361;1" values="0;-360;-360" keySplines="0.167 0.167 0.667 1;0 0 0 0" calcMode="linear"></animateTransform><animateTransform repeatCount="indefinite" dur="80s" begin="0s" xlink:href="#_R_G_L_2_G_D_3_P_0_G_0_T_0" fill="freeze" attributeName="transform" from="0" to="-360" type="rotate" additive="sum" keyTimes="0;0.9983361;1" values="0;-360;-360" keySplines="0.167 0.167 0.667 1;0 0 0 0" calcMode="linear"></animateTransform><animateTransform repeatCount="indefinite" dur="80s" begin="0s" xlink:href="#_R_G_L_2_G_N_0_T_0" fill="freeze" attributeName="transform" from="0" to="360" type="rotate" additive="sum" keyTimes="0;0.9983361;1" values="0;360;360" keySplines="0.167 0.167 0.667 1;0 0 0 0" calcMode="linear"></animateTransform><filter id="gooey"><feGaussianBlur in="SourceGraphic" stdDeviation="6" result="blur" color-interpolation-filters="sRGB"></feGaussianBlur><feColorMatrix in="blur" values="1 0 0 0 0  0 1 0 0 0  0 0 1 0 0  0 0 0 18 -7" result="goo"></feColorMatrix></filter></defs><g id="_R_G"><g id="_R_G_L_1_G_N_2_T_0" transform=" translate(565.5, 578)"><g id="_R_G_L_1_G" transform=" translate(0, 0) translate(-565.5, -578)"><g id="_R_G_L_1_G_D_1_P_0_G_0_T_0" transform=" translate(1049.295, 749.294)"><path id="_R_G_L_1_G_D_1_P_0" fill="#12ff80" fill-opacity="1" fill-rule="nonzero" d=" M29.98 -48.29 C29.98,-48.29 -29.97,-48.29 -29.97,-48.29 C-40.09,-48.29 -48.29,-40.09 -48.29,-29.97 C-48.29,-29.97 -48.29,29.97 -48.29,29.97 C-48.29,40.09 -40.09,48.29 -29.97,48.29 C-29.97,48.29 29.98,48.29 29.98,48.29 C40.1,48.29 48.3,40.09 48.3,29.97 C48.3,29.97 48.3,-29.97 48.3,-29.97 C48.3,-40.09 40.1,-48.29 29.98,-48.29z "></path></g><g id="_R_G_L_1_G_D_2_P_0_G_0_T_0" transform=" translate(451.252, 1080.78)"><path id="_R_G_L_1_G_D_2_P_0" fill="#12ff80" fill-opacity="1" fill-rule="nonzero" d=" M30.81 -46.3 C30.81,-46.3 -30.81,-46.3 -30.81,-46.3 C-39.36,-46.3 -46.3,-39.36 -46.3,-30.81 C-46.3,-30.81 -46.3,30.81 -46.3,30.81 C-46.3,39.36 -39.36,46.3 -30.81,46.3 C-30.81,46.3 30.81,46.3 30.81,46.3 C39.36,46.3 46.3,39.36 46.3,30.81 C46.3,30.81 46.3,-30.81 46.3,-30.81 C46.3,-39.36 39.36,-46.3 30.81,-46.3z "></path></g><g id="_R_G_L_1_G_D_3_P_0_G_0_T_0" transform=" translate(105.855, 750.042)"><path id="_R_G_L_1_G_D_3_P_0" fill="#12ff80" fill-opacity="1" fill-rule="nonzero" d=" M27.31 -47.96 C27.31,-47.96 -27.32,-47.96 -27.32,-47.96 C-38.72,-47.96 -47.96,-38.72 -47.96,-27.31 C-47.96,-27.31 -47.96,27.32 -47.96,27.32 C-47.96,38.72 -38.72,47.96 -27.32,47.96 C-27.32,47.96 27.31,47.96 27.31,47.96 C38.72,47.96 47.96,38.72 47.96,27.32 C47.96,27.32 47.96,-27.31 47.96,-27.31 C47.96,-38.72 38.72,-47.96 27.31,-47.96z "></path></g><g id="_R_G_L_1_G_D_4_P_0_G_0_T_0" transform=" translate(348, 108)"><path id="_R_G_L_1_G_D_4_P_0" fill="#12ff80" fill-opacity="1" fill-rule="nonzero" d=" M18.44 -47 C18.44,-47 -18.44,-47 -18.44,-47 C-34.21,-47 -47,-34.21 -47,-18.44 C-47,-18.44 -47,18.44 -47,18.44 C-47,34.21 -34.21,47 -18.44,47 C-18.44,47 18.44,47 18.44,47 C34.21,47 47,34.21 47,18.44 C47,18.44 47,-18.44 47,-18.44 C47,-34.21 34.21,-47 18.44,-47z "></path></g><g id="_R_G_L_1_G_D_5_P_0_G_0_T_0" transform=" translate(155.815, 306.384)"><path id="_R_G_L_1_G_D_5_P_0" fill="#12ff80" fill-opacity="1" fill-rule="nonzero" d=" M42.64 -63.28 C42.64,-63.28 -42.64,-63.28 -42.64,-63.28 C-54.04,-63.28 -63.28,-54.04 -63.28,-42.64 C-63.28,-42.64 -63.28,42.64 -63.28,42.64 C-63.28,54.04 -54.04,63.29 -42.64,63.29 C-42.64,63.29 42.64,63.29 42.64,63.29 C54.04,63.29 63.28,54.04 63.28,42.64 C63.28,42.64 63.28,-42.64 63.28,-42.64 C63.28,-54.04 54.04,-63.28 42.64,-63.28z "></path></g><g id="_R_G_L_1_G_D_6_P_0_G_0_T_0" transform=" translate(164.811, 890.266)"><path id="_R_G_L_0_G_D_12_P_0" fill="#12ff80" fill-opacity="1" fill-rule="nonzero" d=" M22.32 -42.97 C22.32,-42.97 -22.32,-42.97 -22.32,-42.97 C-33.72,-42.97 -42.96,-33.72 -42.96,-22.32 C-42.96,-22.32 -42.96,22.32 -42.96,22.32 C-42.96,33.72 -33.72,42.97 -22.32,42.97 C-22.32,42.97 22.32,42.97 22.32,42.97 C33.72,42.97 42.96,33.72 42.96,22.32 C42.96,22.32 42.96,-22.32 42.96,-22.32 C42.96,-33.72 33.72,-42.97 22.32,-42.97z "></path></g><g id="_R_G_L_1_G_D_7_P_0_G_0_T_0" transform=" translate(1021.47, 379.471)"><path id="_R_G_L_0_G_D_4_P_0" fill="#12ff80" fill-opacity="1" fill-rule="nonzero" d=" M21.99 -37.47 C21.99,-37.47 -21.98,-37.47 -21.98,-37.47 C-30.54,-37.47 -37.47,-30.54 -37.47,-21.98 C-37.47,-21.98 -37.47,21.99 -37.47,21.99 C-37.47,30.54 -30.54,37.47 -21.98,37.47 C-21.98,37.47 21.99,37.47 21.99,37.47 C30.54,37.47 37.47,30.54 37.47,21.99 C37.47,21.99 37.47,-21.98 37.47,-21.98 C37.47,-30.54 30.54,-37.47 21.99,-37.47z "></path></g></g></g><g id="_R_G_L_0_G_N_1_T_0" transform=" translate(565.5, 578)"><g id="_R_G_L_0_G" transform=" translate(0, 0) translate(-565.5, -578)"><g id="_R_G_L_0_G_D_0_P_0_G_0_T_0" transform=" translate(483.732, 78.727)"><path id="_R_G_L_0_G_D_0_P_0" fill="#12ff80" fill-opacity="1" fill-rule="nonzero" d=" M17.32 -32.81 C17.32,-32.81 -17.32,-32.81 -17.32,-32.81 C-25.88,-32.81 -32.81,-25.87 -32.81,-17.32 C-32.81,-17.32 -32.81,17.32 -32.81,17.32 C-32.81,25.88 -25.88,32.81 -17.32,32.81 C-17.32,32.81 17.32,32.81 17.32,32.81 C25.88,32.81 32.81,25.88 32.81,17.32 C32.81,17.32 32.81,-17.32 32.81,-17.32 C32.81,-25.87 25.88,-32.81 17.32,-32.81z "></path></g><g id="_R_G_L_0_G_D_2_P_0_G_0_T_0" transform=" translate(710.387, 89.552)"><path id="_R_G_L_0_G_D_2_P_0" fill="#12ff80" fill-opacity="1" fill-rule="nonzero" d=" M18.82 -34.31 C18.82,-34.31 -18.82,-34.31 -18.82,-34.31 C-27.37,-34.31 -34.31,-27.37 -34.31,-18.82 C-34.31,-18.82 -34.31,18.82 -34.31,18.82 C-34.31,27.37 -27.37,34.31 -18.82,34.31 C-18.82,34.31 18.82,34.31 18.82,34.31 C27.37,34.31 34.31,27.37 34.31,18.82 C34.31,18.82 34.31,-18.82 34.31,-18.82 C34.31,-27.37 27.37,-34.31 18.82,-34.31z "></path></g><g id="_R_G_L_0_G_D_3_P_0_G_0_T_0" transform=" translate(886.086, 155.328)"><path id="_R_G_L_0_G_D_3_P_0" fill="#12ff80" fill-opacity="1" fill-rule="nonzero" d=" M21.99 -37.47 C21.99,-37.47 -21.98,-37.47 -21.98,-37.47 C-30.54,-37.47 -37.47,-30.54 -37.47,-21.98 C-37.47,-21.98 -37.47,21.99 -37.47,21.99 C-37.47,30.54 -30.54,37.47 -21.98,37.47 C-21.98,37.47 21.99,37.47 21.99,37.47 C30.54,37.47 37.47,30.54 37.47,21.99 C37.47,21.99 37.47,-21.98 37.47,-21.98 C37.47,-30.54 30.54,-37.47 21.99,-37.47z "></path></g><g id="_R_G_L_0_G_D_5_P_0_G_0_T_0" transform=" translate(976.5, 314.5)"><path id="_R_G_L_0_G_D_5_P_0" fill="#12ff80" fill-opacity="1" fill-rule="nonzero" d=" M12.62 -21.5 C12.62,-21.5 -12.61,-21.5 -12.61,-21.5 C-17.52,-21.5 -21.5,-17.52 -21.5,-12.61 C-21.5,-12.61 -21.5,12.62 -21.5,12.62 C-21.5,17.52 -17.52,21.5 -12.61,21.5 C-12.61,21.5 12.62,21.5 12.62,21.5 C17.52,21.5 21.5,17.52 21.5,12.62 C21.5,12.62 21.5,-12.61 21.5,-12.61 C21.5,-17.52 17.52,-21.5 12.62,-21.5z "></path></g><g id="_R_G_L_0_G_D_7_P_0_G_0_T_0" transform=" translate(1067.435, 561.185)"><path id="_R_G_L_0_G_D_7_P_0" fill="#12ff80" fill-opacity="1" fill-rule="nonzero" d=" M15.5 -30.97 C15.5,-30.97 -15.48,-30.97 -15.48,-30.97 C-24.03,-30.97 -30.97,-24.04 -30.97,-15.49 C-30.97,-15.49 -30.97,15.49 -30.97,15.49 C-30.97,24.04 -24.03,30.98 -15.48,30.98 C-15.48,30.98 15.5,30.98 15.5,30.98 C24.05,30.98 30.98,24.04 30.98,15.49 C30.98,15.49 30.98,-15.49 30.98,-15.49 C30.98,-24.04 24.05,-30.97 15.5,-30.97z "></path></g><g id="_R_G_L_0_G_D_8_P_0_G_0_T_0" transform=" translate(843.953, 991.188)"><path id="_R_G_L_0_G_D_8_P_0" fill="#12ff80" fill-opacity="1" fill-rule="nonzero" d=" M15.83 -31.31 C15.83,-31.31 -15.82,-31.31 -15.82,-31.31 C-24.38,-31.31 -31.31,-24.38 -31.31,-15.83 C-31.31,-15.83 -31.31,15.82 -31.31,15.82 C-31.31,24.37 -24.38,31.31 -15.82,31.31 C-15.82,31.31 15.83,31.31 15.83,31.31 C24.38,31.31 31.31,24.37 31.31,15.82 C31.31,15.82 31.31,-15.83 31.31,-15.83 C31.31,-24.38 24.38,-31.31 15.83,-31.31z "></path></g><g id="_R_G_L_0_G_D_9_P_0_G_0_T_0" transform=" translate(931.5, 933.5)"><path id="_R_G_L_0_G_D_9_P_0" fill="#12ff80" fill-opacity="1" fill-rule="nonzero" d=" M11.88 -23.5 C11.88,-23.5 -11.88,-23.5 -11.88,-23.5 C-18.3,-23.5 -23.5,-18.3 -23.5,-11.88 C-23.5,-11.88 -23.5,11.88 -23.5,11.88 C-23.5,18.3 -18.3,23.5 -11.88,23.5 C-11.88,23.5 11.88,23.5 11.88,23.5 C18.3,23.5 23.5,18.3 23.5,11.88 C23.5,11.88 23.5,-11.88 23.5,-11.88 C23.5,-18.3 18.3,-23.5 11.88,-23.5z "></path></g><g id="_R_G_L_0_G_D_10_P_0_G_0_T_0" transform=" translate(998.5, 837.5)"><path id="_R_G_L_0_G_D_10_P_0" fill="#12ff80" fill-opacity="1" fill-rule="nonzero" d=" M13.96 -22.5 C13.96,-22.5 -13.96,-22.5 -13.96,-22.5 C-18.68,-22.5 -22.5,-18.68 -22.5,-13.96 C-22.5,-13.96 -22.5,13.96 -22.5,13.96 C-22.5,18.68 -18.68,22.5 -13.96,22.5 C-13.96,22.5 13.96,22.5 13.96,22.5 C18.68,22.5 22.5,18.68 22.5,13.96 C22.5,13.96 22.5,-13.96 22.5,-13.96 C22.5,-18.68 18.68,-22.5 13.96,-22.5z "></path></g><g id="_R_G_L_0_G_D_11_P_0_G_0_T_0" transform=" translate(597.305, 1086.28)"><path id="_R_G_L_0_G_D_11_P_0" fill="#12ff80" fill-opacity="1" fill-rule="nonzero" d=" M14.32 -29.81 C14.32,-29.81 -14.32,-29.81 -14.32,-29.81 C-22.87,-29.81 -29.81,-22.88 -29.81,-14.33 C-29.81,-14.33 -29.81,14.32 -29.81,14.32 C-29.81,22.87 -22.87,29.81 -14.32,29.81 C-14.32,29.81 14.32,29.81 14.32,29.81 C22.88,29.81 29.81,22.87 29.81,14.32 C29.81,14.32 29.81,-14.33 29.81,-14.33 C29.81,-22.88 22.88,-29.81 14.32,-29.81z "></path></g><g id="_R_G_L_0_G_D_13_P_0_G_0_T_0" transform=" translate(263, 999)"><path id="_R_G_L_0_G_D_13_P_0" fill="#12ff80" fill-opacity="1" fill-rule="nonzero" d=" M19.93 -35 C19.93,-35 -19.93,-35 -19.93,-35 C-28.25,-35 -35,-28.25 -35,-19.93 C-35,-19.93 -35,19.93 -35,19.93 C-35,28.25 -28.25,35 -19.93,35 C-19.93,35 19.93,35 19.93,35 C28.25,35 35,28.25 35,19.93 C35,19.93 35,-19.93 35,-19.93 C35,-28.25 28.25,-35 19.93,-35z "></path></g><g id="_R_G_L_0_G_D_14_P_0_G_0_T_0" transform=" translate(331, 1034)"><path id="_R_G_L_0_G_D_14_P_0" fill="#12ff80" fill-opacity="1" fill-rule="nonzero" d=" M14.24 -25 C14.24,-25 -14.24,-25 -14.24,-25 C-20.18,-25 -25,-20.18 -25,-14.24 C-25,-14.24 -25,14.24 -25,14.24 C-25,20.18 -20.18,25 -14.24,25 C-14.24,25 14.24,25 14.24,25 C20.18,25 25,20.18 25,14.24 C25,14.24 25,-14.24 25,-14.24 C25,-20.18 20.18,-25 14.24,-25z "></path></g><g id="_R_G_L_0_G_D_15_P_0_G_0_T_0" transform=" translate(70.55, 604.151)"><path id="_R_G_L_0_G_D_15_P_0" fill="#12ff80" fill-opacity="1" fill-rule="nonzero" d=" M26.65 -47.29 C26.65,-47.29 -26.65,-47.29 -26.65,-47.29 C-38.05,-47.29 -47.29,-38.05 -47.29,-26.65 C-47.29,-26.65 -47.29,26.65 -47.29,26.65 C-47.29,38.05 -38.05,47.3 -26.65,47.3 C-26.65,47.3 26.65,47.3 26.65,47.3 C38.05,47.3 47.3,38.05 47.3,26.65 C47.3,26.65 47.3,-26.65 47.3,-26.65 C47.3,-38.05 38.05,-47.29 26.65,-47.29z "></path></g><g id="_R_G_L_0_G_D_16_P_0_G_0_T_0" transform=" translate(76.55, 461.598)"><path id="_R_G_L_0_G_D_16_P_0" fill="#12ff80" fill-opacity="1" fill-rule="nonzero" d=" M13.33 -33.97 C13.33,-33.97 -13.33,-33.97 -13.33,-33.97 C-24.73,-33.97 -33.97,-24.73 -33.97,-13.33 C-33.97,-13.33 -33.97,13.33 -33.97,13.33 C-33.97,24.73 -24.73,33.98 -13.33,33.98 C-13.33,33.98 13.33,33.98 13.33,33.98 C24.73,33.98 33.98,24.73 33.98,13.33 C33.98,13.33 33.98,-13.33 33.98,-13.33 C33.98,-24.73 24.73,-33.97 13.33,-33.97z "></path></g><g id="_R_G_L_0_G_D_17_P_0_G_0_T_0" transform=" translate(266.975, 170.975)"><path id="_R_G_L_0_G_D_17_P_0" fill="#12ff80" fill-opacity="1" fill-rule="nonzero" d=" M13.33 -33.97 C13.33,-33.97 -13.33,-33.97 -13.33,-33.97 C-24.73,-33.97 -33.97,-24.73 -33.97,-13.33 C-33.97,-13.33 -33.97,13.33 -33.97,13.33 C-33.97,24.73 -24.73,33.98 -13.33,33.98 C-13.33,33.98 13.33,33.98 13.33,33.98 C24.73,33.98 33.98,24.73 33.98,13.33 C33.98,13.33 33.98,-13.33 33.98,-13.33 C33.98,-24.73 24.73,-33.97 13.33,-33.97z "></path></g></g></g><g id="_R_G_L_2_G_N_0_T_0" transform=" translate(565.5, 578)"><g transform="translate(0, 0) translate(-565.5, -578)"><g id="_R_G_L_2_G_D_0_P_0_G_0_T_0" transform=" translate(717.045, 1049.465)"><path id="_R_G_L_1_G_D_0_P_0" fill="#12ff80" fill-opacity="1" fill-rule="nonzero" d=" M29.97 -48.29 C29.97,-48.29 -29.97,-48.29 -29.97,-48.29 C-40.09,-48.29 -48.29,-40.09 -48.29,-29.97 C-48.29,-29.97 -48.29,29.98 -48.29,29.98 C-48.29,40.1 -40.09,48.3 -29.97,48.3 C-29.97,48.3 29.97,48.3 29.97,48.3 C40.09,48.3 48.29,40.1 48.29,29.98 C48.29,29.98 48.29,-29.97 48.29,-29.97 C48.29,-40.09 40.09,-48.29 29.97,-48.29z "></path></g><g id="_R_G_L_2_G_D_1_P_0_G_0_T_0" transform=" translate(583.818, 68.895)"><path id="_R_G_L_0_G_D_1_P_0" fill="#12ff80" fill-opacity="1" fill-rule="nonzero" d=" M13.49 -28.98 C13.49,-28.98 -13.49,-28.98 -13.49,-28.98 C-22.04,-28.98 -28.98,-22.04 -28.98,-13.49 C-28.98,-13.49 -28.98,13.49 -28.98,13.49 C-28.98,22.04 -22.04,28.98 -13.49,28.98 C-13.49,28.98 13.49,28.98 13.49,28.98 C22.05,28.98 28.98,22.04 28.98,13.49 C28.98,13.49 28.98,-13.49 28.98,-13.49 C28.98,-22.04 22.05,-28.98 13.49,-28.98z "></path></g><g id="_R_G_L_2_G_D_2_P_0_G_0_T_0" transform=" translate(945.5, 243.5)"><path id="_R_G_L_0_G_D_6_P_0" fill="#12ff80" fill-opacity="1" fill-rule="nonzero" d=" M17.9 -30.5 C17.9,-30.5 -17.89,-30.5 -17.89,-30.5 C-24.86,-30.5 -30.5,-24.86 -30.5,-17.89 C-30.5,-17.89 -30.5,17.9 -30.5,17.9 C-30.5,24.86 -24.86,30.5 -17.89,30.5 C-17.89,30.5 17.9,30.5 17.9,30.5 C24.86,30.5 30.5,24.86 30.5,17.9 C30.5,17.9 30.5,-17.89 30.5,-17.89 C30.5,-24.86 24.86,-30.5 17.9,-30.5z "></path></g></g></g></g></svg>